<svg width="35" height="35" viewBox="0 0 35 35" fill="none" xmlns="http://www.w3.org/2000/svg">
<path d="M17.5 35C14.0388 35 10.6554 33.9736 7.77753 32.0507C4.89967 30.1278 2.65665 27.3947 1.33212 24.197C0.00758244 20.9993 -0.338976 17.4806 0.336265 14.0859C1.01151 10.6913 2.67822 7.57306 5.12564 5.12564C7.57306 2.67822 10.6913 1.01151 14.0859 0.336265C17.4806 -0.338976 20.9993 0.00758244 24.197 1.33212C27.3947 2.65665 30.1278 4.89967 32.0507 7.77753C33.9736 10.6554 35 14.0388 35 17.5C34.9948 22.1397 33.1494 26.5879 29.8687 29.8687C26.5879 33.1494 22.1397 34.9948 17.5 35ZM17.5 1.96509C14.4251 1.96509 11.4193 2.87702 8.86282 4.58552C6.3063 6.29403 4.3139 8.72235 3.13765 11.5633C1.9614 14.4043 1.65413 17.5304 2.25472 20.546C2.85531 23.5616 4.33677 26.3314 6.51171 28.505C8.68665 30.6786 11.4574 32.1583 14.4734 32.757C17.4894 33.3557 20.6152 33.0464 23.4555 31.8684C26.2957 30.6904 28.7228 28.6964 30.4297 26.1388C32.1366 23.5812 33.0466 20.5749 33.0447 17.5C33.0395 13.3798 31.3998 9.42995 28.4854 6.51743C25.5711 3.60491 21.6202 1.96768 17.5 1.96509V1.96509Z" fill="white"/>
<path d="M22.3987 13.6578C23.0034 13.6578 23.4937 13.1676 23.4937 12.5629C23.4937 11.9581 23.0034 11.4679 22.3987 11.4679C21.7939 11.4679 21.3037 11.9581 21.3037 12.5629C21.3037 13.1676 21.7939 13.6578 22.3987 13.6578Z" fill="white"/>
<path d="M26.1527 11.5167C25.9213 10.9025 25.5633 10.344 25.1017 9.87737C24.6402 9.41077 24.0855 9.04662 23.4739 8.80864C22.7691 8.5471 22.0257 8.40502 21.2742 8.38825H17.5102C15.0172 8.38825 14.7825 8.32959 13.8147 8.32959H13.6974C12.9455 8.36435 12.2051 8.52633 11.5074 8.80864C10.8888 9.04277 10.3332 9.41765 9.8845 9.90361C9.41301 10.3567 9.04601 10.9072 8.80908 11.5167C8.54653 12.2152 8.39799 12.9513 8.36914 13.6969V21.2444C8.39377 22.0064 8.54236 22.7592 8.80908 23.4734C9.05298 24.0869 9.42649 24.6405 9.90406 25.0963C10.3581 25.5761 10.9121 25.9499 11.527 26.1913C12.2275 26.4569 12.9679 26.6023 13.7169 26.6215C14.6946 26.6215 14.9976 26.6215 17.4809 26.6215C19.9641 26.6215 20.2867 26.6215 21.2644 26.6215C22.0216 26.5942 22.7686 26.4389 23.4739 26.162C24.6775 25.641 25.636 24.679 26.1527 23.4734C26.4173 22.7726 26.5628 22.0324 26.5828 21.2835C26.5828 20.3058 26.6317 19.993 26.6317 17.5C26.6317 15.007 26.6317 14.7137 26.5828 13.736C26.567 12.9771 26.4215 12.2266 26.1527 11.5167V11.5167ZM24.8817 17.4609V21.1662C24.8787 21.7464 24.7762 22.3218 24.5786 22.8673C24.4202 23.2609 24.1833 23.6181 23.8825 23.9173C23.5816 24.2164 23.2231 24.4513 22.8286 24.6075C22.286 24.8044 21.7145 24.9101 21.1373 24.9204H13.7756C13.192 24.9101 12.6141 24.8045 12.0647 24.6075C11.6525 24.4607 11.2783 24.2235 10.9697 23.9134C10.6607 23.6057 10.4265 23.231 10.2853 22.8184C10.0876 22.2726 9.98183 21.6978 9.97249 21.1173V13.6969C9.98272 13.1134 10.0884 12.5354 10.2853 11.986C10.4327 11.5764 10.6661 11.203 10.9697 10.891C11.278 10.585 11.6527 10.3542 12.0647 10.2165C12.6123 10.0117 13.191 9.90258 13.7756 9.89383H21.1666C21.7479 9.90351 22.3233 10.0126 22.8677 10.2165C23.2781 10.3575 23.6521 10.5879 23.9627 10.891C24.2664 11.203 24.4997 11.5764 24.6471 11.986C24.832 12.5534 24.9116 13.1498 24.8817 13.7458V17.4609Z" fill="white"/>
<path d="M17.5299 12.817C16.297 12.8297 15.1182 13.3251 14.2464 14.197C13.3746 15.0688 12.8792 16.2476 12.8665 17.4804V17.4804C12.8568 18.4128 13.124 19.327 13.6342 20.1075C14.1443 20.8879 14.8746 21.4995 15.7324 21.8648C16.5903 22.23 17.5373 22.3326 18.4534 22.1595C19.3696 21.9864 20.2139 21.5453 20.8793 20.8922C21.5447 20.2391 22.0015 19.4033 22.1917 18.4905C22.3819 17.5777 22.2971 16.629 21.9479 15.7644C21.5987 14.8999 21.0009 14.1583 20.2301 13.6337C19.4593 13.109 18.5502 12.8248 17.6179 12.817H17.5299ZM17.5299 20.5405C16.9227 20.5502 16.3263 20.379 15.8167 20.0487C15.3071 19.7184 14.9073 19.2439 14.6681 18.6857C14.429 18.1275 14.3614 17.5107 14.4739 16.914C14.5864 16.3172 14.8739 15.7674 15.2999 15.3345C15.7258 14.9017 16.2709 14.6053 16.8658 14.4832C17.4607 14.3611 18.0784 14.4188 18.6404 14.6489C19.2025 14.879 19.6833 15.2711 20.0217 15.7754C20.3602 16.2796 20.541 16.8731 20.541 17.4804C20.541 18.2903 20.22 19.0672 19.6482 19.6408C19.0765 20.2143 18.3006 20.5379 17.4908 20.5405H17.5299Z" fill="white"/>
</svg>
