<svg width="596" height="211" viewBox="0 0 596 211" fill="none" xmlns="http://www.w3.org/2000/svg">
<path d="M4.72862 56.24C4.85262 54.38 5.22462 50.288 5.22462 46.692V1.67999H0.140625V86H5.22462V60.456L16.0126 47.188L48.8726 86H55.1966L19.2366 43.592L51.9726 1.67999H46.2686L9.81262 47.808C8.82062 49.172 6.46463 53.264 4.72862 56.24Z" fill="white"/>
<path d="M107.881 86.992C131.689 86.992 151.033 69.508 151.033 43.84C151.033 18.172 131.689 0.687988 107.881 0.687988C84.0731 0.687988 64.7291 18.172 64.7291 43.84C64.7291 69.508 84.0731 86.992 107.881 86.992ZM107.881 82.404C86.1811 82.404 69.9371 65.912 69.9371 43.84C69.9371 21.768 86.1811 5.27599 107.881 5.27599C129.581 5.27599 145.825 21.768 145.825 43.84C145.825 65.912 129.581 82.404 107.881 82.404Z" fill="white"/>
<path d="M205.788 60.332C218.064 55.496 223.892 44.832 223.892 32.432C223.892 15.32 213.104 1.67999 190.288 1.67999H173.3V86H178.384V63.06H190.288C194.132 63.06 197.728 62.688 200.828 61.944L218.436 86H224.512L205.788 60.332ZM178.384 58.596V6.14398H189.792C211.12 6.14398 218.684 18.544 218.684 32.432C218.684 46.32 211.12 58.596 189.792 58.596H178.384Z" fill="white"/>
<path d="M310.802 86.992H312.29V1.67999H307.578V69.88C307.578 72.36 307.95 76.204 307.95 76.204C307.95 76.204 305.718 72.732 304.106 70.624L250.166 0.687988H248.678V86H253.39V17.8C253.39 15.32 253.018 11.476 253.018 11.476C253.018 11.476 255.25 14.948 256.862 17.056L310.802 86.992Z" fill="white"/>
<path d="M340.779 86H345.863V1.67999H340.779V86Z" fill="white"/>
<path d="M374.369 86H420.001V81.536H379.453V1.67999H374.369V86Z" fill="white"/>
<path d="M472.18 86.992C495.988 86.992 515.332 69.508 515.332 43.84C515.332 18.172 495.988 0.687988 472.18 0.687988C448.372 0.687988 429.028 18.172 429.028 43.84C429.028 69.508 448.372 86.992 472.18 86.992ZM472.18 82.404C450.48 82.404 434.236 65.912 434.236 43.84C434.236 21.768 450.48 5.27599 472.18 5.27599C493.88 5.27599 510.124 21.768 510.124 43.84C510.124 65.912 493.88 82.404 472.18 82.404Z" fill="white"/>
<path d="M559.541 86.992H561.029L595.129 1.67999H590.045L562.765 70.5C561.649 73.228 560.409 78.188 560.409 78.188C560.409 78.188 559.169 73.228 558.053 70.5L530.773 1.67999H525.317L559.541 86.992Z" fill="white"/>
<path d="M107.111 210.992C121.619 210.992 132.035 202.56 132.035 189.416C132.035 177.76 125.463 170.568 111.823 164.368L104.011 160.772C93.595 155.936 89.379 151.844 89.379 143.412C89.379 134.856 95.207 129.152 105.127 129.152C114.427 129.152 119.263 133.864 122.735 139.444L126.703 136.84C122.735 130.516 116.411 124.688 105.127 124.688C93.719 124.688 84.419 131.88 84.419 143.536C84.419 154.2 90.247 159.78 102.027 165.236L109.839 168.832C121.619 174.288 127.075 179.62 127.075 189.416C127.075 200.08 118.023 206.528 106.987 206.528C93.471 206.528 87.147 199.46 83.179 192.02L78.839 194.128C82.931 202.56 91.115 210.992 107.111 210.992Z" fill="white"/>
<path d="M171.181 210H176.265V130.144H203.049V125.68H144.397V130.144H171.181V210Z" fill="white"/>
<path d="M249.929 210.992C266.049 210.992 278.449 200.948 278.449 181.976V125.68H273.365V181.604C273.365 197.848 263.693 206.528 249.929 206.528C236.041 206.528 226.617 197.848 226.617 181.604V125.68H221.533V181.976C221.533 200.948 233.685 210.992 249.929 210.992Z" fill="white"/>
<path d="M305.65 210H323.63C352.894 210 369.758 193.756 369.758 167.84C369.758 141.924 352.77 125.68 323.63 125.68H305.65V210ZM310.734 205.412V130.268H323.01C350.91 130.268 364.426 145.768 364.426 167.84C364.426 189.912 350.91 205.412 323.01 205.412H310.734Z" fill="white"/>
<path d="M392.544 210H397.628V125.68H392.544V210Z" fill="white"/>
<path d="M463.582 210.992C487.39 210.992 506.734 193.508 506.734 167.84C506.734 142.172 487.39 124.688 463.582 124.688C439.774 124.688 420.43 142.172 420.43 167.84C420.43 193.508 439.774 210.992 463.582 210.992ZM463.582 206.404C441.882 206.404 425.638 189.912 425.638 167.84C425.638 145.768 441.882 129.276 463.582 129.276C485.282 129.276 501.526 145.768 501.526 167.84C501.526 189.912 485.282 206.404 463.582 206.404Z" fill="white"/>
</svg>
