<svg width="47" height="38" viewBox="0 0 47 38" fill="none" xmlns="http://www.w3.org/2000/svg">
<path d="M21.5653 0.763616C21.5654 0.763602 21.5662 0.763936 21.5678 0.764656C21.5661 0.763991 21.5653 0.763629 21.5653 0.763616ZM20.9126 1V1.01578C20.8965 1.20824 21.003 1.3498 21.093 1.42274C21.1772 1.49106 21.2734 1.52661 21.3366 1.54658C21.4712 1.58914 21.645 1.61651 21.8108 1.63878C21.9167 1.65301 22.0265 1.66613 22.1385 1.67951C22.4076 1.71167 22.6893 1.74534 22.9601 1.7995L22.9601 1.79952L22.9649 1.80043C23.5398 1.90822 23.9375 2.19849 24.037 2.56248C24.1355 2.92262 24.0084 3.59098 22.9662 4.61787L13.8123 12.2593H12.305L13.3624 5.06405C13.5407 4.02668 13.9227 3.3385 14.375 2.86978C14.8306 2.39766 15.3817 2.12334 15.934 1.95464C16.4657 1.79225 16.9817 1.73202 17.4087 1.6822C17.4287 1.67986 17.4485 1.67756 17.4681 1.67526C17.6754 1.65096 17.8866 1.62546 18.0486 1.58278C18.1291 1.56157 18.2306 1.5281 18.322 1.46745C18.4204 1.40216 18.5368 1.28352 18.5633 1.09762L18.5674 1.06895V1.04V1V0.592593H18.16H5.72H5.31259V1V1.02125C5.29989 1.2094 5.39398 1.35886 5.5082 1.44793C5.60579 1.52403 5.71844 1.55923 5.79349 1.57851C5.95037 1.6188 6.16063 1.63967 6.35881 1.65919C6.37057 1.66035 6.3824 1.66152 6.39429 1.66268C6.81406 1.70395 7.31136 1.75283 7.78334 1.90722C8.26279 2.06405 8.67684 2.31771 8.93804 2.74775C9.19942 3.17808 9.34786 3.8512 9.15878 4.92928C9.15876 4.92939 9.15874 4.92949 9.15872 4.9296L5.99881 22.8091L5.99874 22.8095C5.74739 24.2403 5.30617 25.1883 4.80812 25.8237C4.31258 26.4558 3.74432 26.7995 3.20077 26.9971C2.65012 27.1974 2.12242 27.2493 1.69341 27.2894L1.66205 27.2923C1.47091 27.31 1.26979 27.3287 1.1148 27.3669C1.03225 27.3873 0.924191 27.4217 0.827089 27.4904C0.716811 27.5684 0.617606 27.6945 0.595739 27.8695L0.592593 27.8946V27.92V27.96V28.3674H1H13.8H14.2074V27.96V27.937C14.2191 27.7494 14.1289 27.5959 14.0065 27.501C13.9035 27.4212 13.7841 27.3857 13.7034 27.3663C13.5459 27.3286 13.3352 27.31 13.1344 27.2923C13.1223 27.2913 13.1103 27.2902 13.0984 27.2892C12.6415 27.2488 12.096 27.1965 11.5867 26.9999C11.09 26.8082 10.6433 26.485 10.3655 25.9002C10.0822 25.3038 9.94961 24.383 10.2013 22.9505L10.2014 22.95L11.6625 14.5674H13.1481C14.98 19.9154 17.7495 25.5171 21.4254 29.8148C25.1653 34.1873 29.8787 37.2474 35.52 37.2474C39.7059 37.2474 42.2427 36.4195 43.7436 35.3352C45.2555 34.243 45.6874 32.9097 45.6874 32C45.6874 30.655 44.625 29.6726 43.44 29.6726C42.0816 29.6726 40.7926 30.7486 40.7926 32.68C40.7926 33.4185 40.9966 34.3748 41.6747 35.3489C40.6505 35.7493 39.4651 36.0326 38.32 36.0326C32.5056 36.0326 27.9609 32.9221 24.3866 28.5086C20.8671 24.1626 18.3213 18.5903 16.4738 13.6071L24.2758 6.00023C24.2762 5.9999 24.2765 5.99958 24.2768 5.99925C24.7925 5.50305 25.2729 5.01738 25.721 4.56445L25.7684 4.51653C26.2319 4.04799 26.6586 3.61764 27.0605 3.24036C27.8796 2.47146 28.5345 1.98466 29.1043 1.83385L29.1059 1.8334C29.5454 1.71509 29.9059 1.67333 30.1934 1.64003C30.2241 1.63647 30.254 1.63301 30.283 1.62957C30.4213 1.61316 30.58 1.59338 30.7077 1.55146C30.834 1.50999 31.0735 1.39733 31.1219 1.10698L31.1274 1.07372V1.04V1V0.592593H30.72H21.32H20.9126V1Z" stroke="white" stroke-width="0.814815"/>
<circle cx="34.3337" cy="25.9997" r="6.31396" stroke="white" stroke-width="0.705405"/>
<circle cx="41" cy="27.6665" r="4.6473" stroke="white" stroke-width="0.705405"/>
</svg>
