<svg width="28" height="23" viewBox="0 0 28 23" fill="none" xmlns="http://www.w3.org/2000/svg">
<path d="M12.992 1.01161V1V0.8H13.192H18.832H19.032V1V1.024V1.04055L19.0293 1.05688C19.0044 1.20596 18.8817 1.26536 18.8108 1.28865C18.7391 1.31216 18.6485 1.32364 18.5646 1.33361C18.5472 1.33567 18.5293 1.33774 18.5109 1.33987C18.3383 1.35985 18.119 1.38525 17.852 1.45712L17.8512 1.45734C17.4973 1.55101 17.0971 1.85072 16.6059 2.31181C16.3641 2.53884 16.1074 2.79765 15.8294 3.07866L15.8011 3.10725C15.5322 3.37913 15.2442 3.67023 14.9352 3.96761C14.935 3.96778 14.9349 3.96795 14.9347 3.96811L10.2326 8.55258C11.3425 11.5511 12.8748 14.9121 14.9974 17.5331C17.147 20.1874 19.8853 22.064 23.392 22.064C24.1055 22.064 24.8435 21.8826 25.4738 21.6298C25.0464 21.0375 24.92 20.4542 24.92 20.008C24.92 18.8722 25.675 18.248 26.464 18.248C27.1505 18.248 27.768 18.8175 27.768 19.6C27.768 20.1317 27.5156 20.9182 26.6201 21.5651C25.73 22.2081 24.2185 22.704 21.712 22.704C18.3448 22.704 15.5281 20.8778 13.289 18.26C11.0814 15.6789 9.41849 12.3105 8.32066 9.096H7.36015L6.47703 14.1623L6.47698 14.1626C6.32508 15.0273 6.40381 15.5901 6.57916 15.9592C6.75179 16.3226 7.02998 16.5233 7.33602 16.6414C7.64824 16.7619 7.98147 16.7936 8.25511 16.8178C8.2618 16.8184 8.26849 16.819 8.27519 16.8195C8.39719 16.8303 8.52053 16.8412 8.6117 16.863C8.65839 16.8742 8.72254 16.8938 8.77664 16.9357C8.84036 16.9851 8.88643 17.0641 8.88 17.1607V17.176V17.376H8.68H1H0.8V17.176V17.152V17.1395L0.801544 17.1272C0.812825 17.037 0.863861 16.9716 0.921924 16.9305C0.973519 16.894 1.03209 16.875 1.07952 16.8633C1.16917 16.8412 1.28674 16.8303 1.40292 16.8195L1.42017 16.8179C1.67755 16.7939 1.99933 16.7623 2.33565 16.64C2.66848 16.519 3.01672 16.3083 3.31985 15.9216C3.62421 15.5334 3.89126 14.9572 4.04302 14.0934L4.04305 14.0932L5.93901 3.36544L12.992 1.01161ZM12.992 1.01161C12.9833 1.10914 13.037 1.18122 13.0838 1.21913C13.1277 1.25479 13.179 1.2741 13.2153 1.28557C13.292 1.30981 13.3927 1.32583 13.4924 1.33922C13.5546 1.34758 13.6197 1.35536 13.6865 1.36334C13.8487 1.38272 14.0205 1.40327 14.1848 1.43612L14.1848 1.43613L14.1871 1.43657C14.5392 1.50258 14.7988 1.68326 14.8651 1.92576C14.9309 2.1663 14.8391 2.58385 14.2096 3.20368L8.70349 7.8H7.73154L8.37352 3.43146C8.48181 2.8011 8.71461 2.37953 8.99304 2.091C9.27308 1.80081 9.6111 1.633 9.94742 1.53028C10.2704 1.43164 10.5836 1.3951 10.8393 1.36526C10.8516 1.36383 10.8637 1.36242 10.8757 1.36101C11.001 1.34632 11.1243 1.33134 11.2178 1.30669C11.2643 1.29443 11.3198 1.27585 11.3686 1.24344C11.4209 1.20874 11.4804 1.14736 11.494 1.05228L11.496 1.03821V1.024V1V0.8H11.296H3.832H3.632V1V1.01438M12.992 1.01161L3.632 1.01438M3.632 1.01438C3.62504 1.11077 3.67288 1.18742 3.73225 1.23371C3.78343 1.27362 3.84377 1.29291 3.88715 1.30406C3.97724 1.32719 4.09951 1.33945 4.21964 1.35129C4.22715 1.35203 4.23471 1.35277 4.24232 1.35352C4.49332 1.37818 4.79592 1.40792 5.08382 1.50209C5.37755 1.59817 5.63672 1.75542 5.80081 2.02558C5.96498 2.29586 6.05367 2.71164 5.93905 3.36519L3.632 1.01438ZM13.7019 1.1637C13.7924 1.17453 13.889 1.18608 13.9862 1.2H13.192V1.03805C13.2062 1.10443 13.4263 1.13075 13.7019 1.1637Z" stroke="white" stroke-width="0.4"/>
<circle cx="21" cy="16" r="3.82686" stroke="white" stroke-width="0.34629"/>
<circle cx="25" cy="17" r="2.82686" stroke="white" stroke-width="0.34629"/>
</svg>
