<svg width="63" height="51" viewBox="0 0 63 51" fill="none" xmlns="http://www.w3.org/2000/svg">
<path d="M32.6986 4.08808C32.8272 4.55831 32.664 5.44274 31.2761 6.81041L19.0765 16.9942H17.0943L18.501 7.42165C18.7383 6.04168 19.2462 5.12761 19.8464 4.50561C20.4511 3.87894 21.1829 3.51449 21.9173 3.29017C22.6246 3.07414 23.3112 2.994 23.8807 2.92754C23.9072 2.92445 23.9335 2.92138 23.9595 2.91833C24.2355 2.88598 24.5186 2.85185 24.7361 2.79455C24.8441 2.76608 24.9817 2.72084 25.106 2.63835C25.24 2.54947 25.3993 2.38729 25.4357 2.13272L25.4413 2.09322V2.05333V2V1.43868H24.88H8.29333H7.73202V2V2.0277C7.71482 2.28527 7.84378 2.48985 7.9998 2.61152C8.13292 2.71533 8.28607 2.763 8.38682 2.78888C8.59764 2.84303 8.87956 2.87097 9.14331 2.89695C9.1588 2.89847 9.17437 2.9 9.19003 2.90154C9.75008 2.9566 10.4114 3.02161 11.0388 3.22683C11.6756 3.43513 12.2233 3.77129 12.5686 4.33973C12.9141 4.90857 13.1122 5.8012 12.8605 7.23586C12.8605 7.23602 12.8605 7.23618 12.8605 7.23634L8.64725 31.0756L8.64715 31.0762C8.3124 32.9817 7.72506 34.2428 7.06324 35.087C6.40489 35.9268 5.65017 36.3833 4.92817 36.6458C4.19639 36.9119 3.49488 36.9811 2.92286 37.0344L2.8805 37.0384C2.6262 37.062 2.35677 37.087 2.14873 37.1383C2.03782 37.1657 1.89118 37.2122 1.75899 37.3057C1.60866 37.4121 1.47292 37.5845 1.44302 37.8237L1.43868 37.8584V37.8933V37.9467V38.508H2H19.0667H19.628V37.9467V37.9165C19.6438 37.6599 19.5202 37.4499 19.353 37.3203C19.2127 37.2116 19.0503 37.1634 18.9421 37.1375C18.7308 37.0868 18.4485 37.062 18.1814 37.0385C18.1651 37.0371 18.1489 37.0356 18.1328 37.0342C17.5234 36.9803 16.7985 36.9107 16.1221 36.6497C15.4631 36.3953 14.8716 35.9671 14.5037 35.1925C14.1282 34.4019 13.951 33.1783 14.2862 31.2705L14.2863 31.2697L16.2319 20.108H18.1846C20.6275 27.2363 24.3198 34.7023 29.2201 40.4315C34.2087 46.2639 40.4977 50.348 48.0267 50.348C53.6099 50.348 56.9966 49.2438 59.002 47.795C61.0227 46.3352 61.6013 44.552 61.6013 43.3333C61.6013 41.53 60.1767 40.212 58.5867 40.212C56.7649 40.212 55.0387 41.6554 55.0387 44.24C55.0387 45.2233 55.309 46.4945 56.205 47.7899C54.8459 48.3188 53.2761 48.692 51.76 48.692C44.0148 48.692 37.9599 44.5489 33.1962 38.6667C28.5079 32.8776 25.1156 25.455 22.6528 18.8141L33.047 8.68002C33.0474 8.67959 33.0479 8.67915 33.0483 8.67871C33.7361 8.01686 34.3769 7.36907 34.9744 6.76511L35.0374 6.70144C35.6555 6.07668 36.2242 5.50312 36.7597 5.00035C37.8519 3.97505 38.7222 3.32908 39.477 3.1293L39.4793 3.12868C40.0638 2.9713 40.5433 2.91576 40.9267 2.87135C40.9676 2.86661 41.0074 2.862 41.0461 2.85741C41.2301 2.83558 41.4436 2.80904 41.6159 2.75249C41.7864 2.69654 42.1141 2.54299 42.1804 2.14561L42.188 2.09979V2.05333V2V1.43868H41.6267H29.0933H28.532V2V2.02019C28.5102 2.2841 28.6564 2.47807 28.7792 2.57772C28.8942 2.67098 29.0251 2.71921 29.11 2.74604C29.2912 2.80332 29.5243 2.83997 29.7453 2.86965C29.887 2.88869 30.0337 2.90623 30.1832 2.92409C30.5418 2.96694 30.9163 3.01169 31.2766 3.08375L31.2766 3.08379L31.2832 3.08504C32.0469 3.22822 32.5685 3.61258 32.6986 4.08808ZM8.63371 1.69173C8.63374 1.69172 8.63459 1.69203 8.63615 1.6927C8.63446 1.69208 8.63368 1.69175 8.63371 1.69173ZM29.4309 1.66961C29.4283 1.6686 29.4271 1.66805 29.4272 1.66803C29.4273 1.66801 29.4286 1.66851 29.4309 1.66961Z" stroke="white" stroke-width="1.12263"/>
<circle cx="46.445" cy="35.3327" r="8.40294" stroke="white" stroke-width="0.971892"/>
<circle cx="55.3332" cy="37.5553" r="6.18072" stroke="white" stroke-width="0.971892"/>
</svg>
