<svg width="35" height="35" viewBox="0 0 35 35" fill="none" xmlns="http://www.w3.org/2000/svg">
<path d="M17.5 35C14.0388 35 10.6554 33.9736 7.77753 32.0507C4.89967 30.1278 2.65665 27.3947 1.33212 24.197C0.00758244 20.9993 -0.338976 17.4806 0.336265 14.0859C1.01151 10.6913 2.67822 7.57306 5.12564 5.12564C7.57306 2.67822 10.6913 1.01151 14.0859 0.336265C17.4806 -0.338976 20.9993 0.00758244 24.197 1.33212C27.3947 2.65665 30.1278 4.89967 32.0507 7.77753C33.9736 10.6554 35 14.0388 35 17.5C34.9948 22.1397 33.1494 26.5879 29.8687 29.8687C26.5879 33.1494 22.1397 34.9948 17.5 35ZM17.5 1.96509C14.4251 1.96509 11.4193 2.87702 8.86282 4.58552C6.3063 6.29403 4.3139 8.72235 3.13765 11.5633C1.9614 14.4043 1.65413 17.5304 2.25472 20.546C2.85531 23.5616 4.33677 26.3314 6.51171 28.505C8.68665 30.6786 11.4574 32.1583 14.4734 32.757C17.4894 33.3557 20.6152 33.0464 23.4555 31.8684C26.2957 30.6904 28.7228 28.6964 30.4297 26.1388C32.1366 23.5812 33.0466 20.5749 33.0447 17.5C33.0395 13.3798 31.3998 9.42995 28.4854 6.51743C25.5711 3.60491 21.6202 1.96768 17.5 1.96509V1.96509Z" fill="white"/>
<path d="M22.7278 19.8131C23.317 20.3021 23.8347 20.8773 24.2649 21.5206C24.4946 21.774 24.6863 22.0618 24.8336 22.3743C25.0719 22.8052 24.8336 23.3159 24.5031 23.3159H22.1437C21.8705 23.3496 21.5934 23.3126 21.3373 23.2082C21.0812 23.1037 20.8539 22.9352 20.6758 22.7174C20.3356 22.3669 20.0149 21.9966 19.7151 21.6084L19.3078 21.1855C18.9773 20.9222 18.739 21.0099 18.4931 21.353C18.3281 21.7286 18.2442 22.1371 18.2472 22.5499C18.2472 23.1483 18.0858 23.3478 17.5171 23.3478C16.3552 23.4426 15.1934 23.164 14.1893 22.5499C13.3061 21.9503 12.5266 21.2004 11.8836 20.3317C10.7217 18.5679 9.71595 16.6985 8.87862 14.7464C8.70954 14.3235 8.79408 14.0682 9.27826 14.0682H11.5839C11.9144 14.0682 12.0758 14.2358 12.2372 14.5789C12.6192 15.6677 13.1359 16.7003 13.7742 17.6508C13.9166 17.9175 14.1101 18.1511 14.343 18.337C14.5889 18.5045 14.8272 18.5045 14.9117 18.1614C15.0325 17.9101 15.1155 17.641 15.1576 17.3635C15.2345 16.6263 15.2345 15.8826 15.1576 15.1454C15.1312 14.9377 15.0429 14.7437 14.9051 14.5907C14.7673 14.4376 14.5869 14.3331 14.3891 14.2916C14.0663 14.2916 14.0663 14.2039 14.2277 14.0363C14.3072 13.9149 14.4174 13.8187 14.5463 13.7581C14.6751 13.6976 14.8175 13.6751 14.9578 13.6932H17.64C18.0474 13.781 18.1319 13.9485 18.2088 14.4911V17.563C18.2088 17.7385 18.2933 18.2492 18.6161 18.3609C18.9389 18.4726 19.0234 18.2731 19.1848 18.1056C19.7979 17.3987 20.2915 16.5894 20.645 15.7119C20.8141 15.3688 20.9755 14.914 21.1369 14.515C21.1791 14.3929 21.2561 14.287 21.3577 14.2114C21.4593 14.1359 21.5807 14.0943 21.7056 14.0922H24.4493C24.8567 14.1799 25.0181 14.3475 24.8567 14.7704C24.5894 15.4446 24.2352 16.0781 23.8038 16.6534C23.3964 17.2518 22.9046 17.8423 22.5049 18.5285C22.1437 19.0471 22.2359 19.3024 22.7278 19.8131Z" fill="white"/>
</svg>
