<svg width="522" height="136" viewBox="0 0 522 136" fill="none" xmlns="http://www.w3.org/2000/svg">
<path d="M61.0351 72.5412C61.0823 71.8334 61.2239 70.276 61.2239 68.9075V51.7769H59.2891V83.8672H61.2239V74.1457L65.3296 69.0962L77.8353 83.8672H80.2421L66.5566 67.7277L79.0151 51.7769H76.8443L62.97 69.3322C62.5925 69.8513 61.6958 71.4086 61.0351 72.5412Z" fill="white"/>
<path d="M100.293 84.2447C109.353 84.2447 116.715 77.5907 116.715 67.8221C116.715 58.0534 109.353 51.3994 100.293 51.3994C91.2318 51.3994 83.87 58.0534 83.87 67.8221C83.87 77.5907 91.2318 84.2447 100.293 84.2447ZM100.293 82.4986C92.0341 82.4986 85.852 76.2222 85.852 67.8221C85.852 59.422 92.0341 53.1455 100.293 53.1455C108.551 53.1455 114.733 59.422 114.733 67.8221C114.733 76.2222 108.551 82.4986 100.293 82.4986Z" fill="white"/>
<path d="M137.554 74.0986C142.226 72.2581 144.444 68.1996 144.444 63.4805C144.444 56.968 140.338 51.7769 131.655 51.7769H125.189V83.8672H127.124V75.1368H131.655C133.118 75.1368 134.486 74.9952 135.666 74.712L142.367 83.8672H144.68L137.554 74.0986ZM127.124 73.4379V53.4758H131.466C139.583 53.4758 142.462 58.195 142.462 63.4805C142.462 68.7659 139.583 73.4379 131.466 73.4379H127.124Z" fill="white"/>
<path d="M177.52 84.2447H178.086V51.7769H176.293V77.7323C176.293 78.6761 176.434 80.1391 176.434 80.1391C176.434 80.1391 175.585 78.8177 174.971 78.0154L154.443 51.3994H153.877V83.8672H155.67V57.9118C155.67 56.968 155.528 55.5051 155.528 55.5051C155.528 55.5051 156.378 56.8264 156.991 57.6287L177.52 84.2447Z" fill="white"/>
<path d="M188.928 83.8672H190.863V51.7769H188.928V83.8672Z" fill="white"/>
<path d="M201.712 83.8672H219.078V82.1683H203.647V51.7769H201.712V83.8672Z" fill="white"/>
<path d="M238.936 84.2447C247.997 84.2447 255.359 77.5907 255.359 67.8221C255.359 58.0534 247.997 51.3994 238.936 51.3994C229.875 51.3994 222.514 58.0534 222.514 67.8221C222.514 77.5907 229.875 84.2447 238.936 84.2447ZM238.936 82.4986C230.678 82.4986 224.496 76.2222 224.496 67.8221C224.496 59.422 230.678 53.1455 238.936 53.1455C247.195 53.1455 253.377 59.422 253.377 67.8221C253.377 76.2222 247.195 82.4986 238.936 82.4986Z" fill="white"/>
<path d="M272.184 84.2447H272.75L285.728 51.7769H283.793L273.411 77.9683C272.986 79.0065 272.514 80.8941 272.514 80.8941C272.514 80.8941 272.043 79.0065 271.618 77.9683L261.236 51.7769H259.159L272.184 84.2447Z" fill="white"/>
<path d="M313.737 84.2447C319.258 84.2447 323.222 81.0357 323.222 76.0334C323.222 71.5974 320.721 68.8603 315.53 66.5007L312.557 65.1322C308.593 63.2917 306.988 61.7344 306.988 58.5253C306.988 55.2691 309.206 53.0983 312.982 53.0983C316.521 53.0983 318.361 54.8916 319.683 57.0152L321.193 56.0242C319.683 53.6174 317.276 51.3994 312.982 51.3994C308.64 51.3994 305.101 54.1365 305.101 58.5725C305.101 62.631 307.319 64.7546 311.802 66.8311L314.775 68.1996C319.258 70.276 321.335 72.3053 321.335 76.0334C321.335 80.0919 317.89 82.5458 313.689 82.5458C308.546 82.5458 306.139 79.8559 304.629 77.0244L302.977 77.8267C304.534 81.0357 307.649 84.2447 313.737 84.2447Z" fill="white"/>
<path d="M338.12 83.8672H340.055V53.4758H350.249V51.7769H327.927V53.4758H338.12V83.8672Z" fill="white"/>
<path d="M368.09 84.2447C374.225 84.2447 378.944 80.4222 378.944 73.2019V51.7769H377.009V73.0603C377.009 79.2424 373.328 82.5458 368.09 82.5458C362.804 82.5458 359.218 79.2424 359.218 73.0603V51.7769H357.283V73.2019C357.283 80.4222 361.908 84.2447 368.09 84.2447Z" fill="white"/>
<path d="M389.296 83.8672H396.139C407.276 83.8672 413.694 77.6851 413.694 67.8221C413.694 57.959 407.229 51.7769 396.139 51.7769H389.296V83.8672ZM391.231 82.1211V53.523H395.903C406.521 53.523 411.665 59.422 411.665 67.8221C411.665 76.2222 406.521 82.1211 395.903 82.1211H391.231Z" fill="white"/>
<path d="M422.366 83.8672H424.301V51.7769H422.366V83.8672Z" fill="white"/>
<path d="M449.401 84.2447C458.462 84.2447 465.824 77.5907 465.824 67.8221C465.824 58.0534 458.462 51.3994 449.401 51.3994C440.341 51.3994 432.979 58.0534 432.979 67.8221C432.979 77.5907 440.341 84.2447 449.401 84.2447ZM449.401 82.4986C441.143 82.4986 434.961 76.2222 434.961 67.8221C434.961 59.422 441.143 53.1455 449.401 53.1455C457.66 53.1455 463.842 59.422 463.842 67.8221C463.842 76.2222 457.66 82.4986 449.401 82.4986Z" fill="white"/>
<circle cx="256.389" cy="8.0529" r="6.91696" stroke="white" stroke-width="0.922261"/>
<line x1="4.03133e-08" y1="7.5916" x2="214.887" y2="7.59162" stroke="url(#paint0_linear)" stroke-width="0.922261"/>
<line x1="522" y1="7.5915" x2="307.113" y2="7.59152" stroke="url(#paint1_linear)" stroke-width="0.922261"/>
<circle cx="266.533" cy="8.0529" r="6.91696" stroke="white" stroke-width="0.922261"/>
<circle cx="256.389" cy="127.947" r="6.91696" stroke="white" stroke-width="0.922261"/>
<line x1="4.03133e-08" y1="127.486" x2="214.887" y2="127.486" stroke="url(#paint2_linear)" stroke-width="0.922261"/>
<line x1="522" y1="127.486" x2="307.113" y2="127.486" stroke="url(#paint3_linear)" stroke-width="0.922261"/>
<circle cx="266.533" cy="127.947" r="6.91696" stroke="white" stroke-width="0.922261"/>
<defs>
<linearGradient id="paint0_linear" x1="214.887" y1="9.05262" x2="-6.79561e-09" y2="9.05262" gradientUnits="userSpaceOnUse">
<stop stop-color="white"/>
<stop offset="1" stop-color="white" stop-opacity="0"/>
</linearGradient>
<linearGradient id="paint1_linear" x1="307.113" y1="6.13052" x2="522" y2="6.13049" gradientUnits="userSpaceOnUse">
<stop stop-color="white"/>
<stop offset="1" stop-color="white" stop-opacity="0"/>
</linearGradient>
<linearGradient id="paint2_linear" x1="214.887" y1="128.947" x2="-6.79561e-09" y2="128.947" gradientUnits="userSpaceOnUse">
<stop stop-color="white"/>
<stop offset="1" stop-color="white" stop-opacity="0"/>
</linearGradient>
<linearGradient id="paint3_linear" x1="307.113" y1="126.025" x2="522" y2="126.025" gradientUnits="userSpaceOnUse">
<stop stop-color="white"/>
<stop offset="1" stop-color="white" stop-opacity="0"/>
</linearGradient>
</defs>
</svg>
