<svg width="69" height="48" viewBox="0 0 69 48" fill="none" xmlns="http://www.w3.org/2000/svg">
<path fill-rule="evenodd" clip-rule="evenodd" d="M32.5765 4.36913C34.4553 2.46991 35.9582 0.950665 37.3333 0.586666C37.9598 0.41801 38.4774 0.358199 38.8615 0.313807C39.3277 0.259934 39.5974 0.228769 39.6267 0.0533326V0H27.0933V0.0533326C27.0592 0.224214 27.5725 0.285593 28.2263 0.363776C28.5929 0.4076 29.0035 0.456704 29.3867 0.533333C31.0933 0.853332 32.5333 2.4 29.6533 5.22667L17.28 15.5556H14.4444L15.9467 5.33333C16.6941 0.966712 20.053 0.575363 21.8071 0.370995C22.4311 0.298293 22.852 0.249254 22.88 0.0533326V0H6.29333V0.0533326C6.26569 0.246867 6.66801 0.286327 7.2607 0.344458C8.95463 0.510601 12.2035 0.829255 11.4133 5.33333L7.2 29.1733C6.15707 35.11 2.67043 35.4352 0.960544 35.5947C0.39699 35.6472 0.0264412 35.6818 0 35.8933V35.9467H17.0667V35.8933C17.093 35.6825 16.6963 35.6475 16.1048 35.5952C14.3018 35.4359 10.6892 35.1168 11.7333 29.1733L13.76 17.5467H16.5867C21.44 31.9467 33.8867 48 48.5 48C49.3578 48 49.9213 47.9399 50.2915 47.8613C52.0039 47.5934 53.591 46.9477 54.9649 46.0122C56.3295 46.9002 57.9585 47.4161 59.7081 47.4161C64.5174 47.4161 68.4161 43.5174 68.4161 38.7081C68.4161 35.3883 66.5585 32.5025 63.826 31.0333C62.6894 30.3744 61.3859 30 60 30C59.953 30 59.9061 30.0004 59.8593 30.0013C59.809 30.0004 59.7586 30 59.7081 30C59.155 30 58.6139 30.0516 58.0895 30.1501C57.6045 29.4193 57.0383 28.747 56.4036 28.1463C54.4484 26.1969 51.8007 25 48.8855 25C48.8227 25 48.7601 25.0006 48.6975 25.0017C48.6318 25.0006 48.566 25 48.5 25C42.1487 25 37 30.1487 37 36.5C37 40.1586 38.7085 43.4182 41.3712 45.5244C30.5712 40.8506 24.012 27.581 20 16.6667L30.6578 6.27555C31.3409 5.61822 31.9778 4.97438 32.5765 4.36913ZM48.6985 26.2714C43.5191 26.376 39.26 30.8139 39.26 36.3903C39.26 42.0336 43.6221 46.5111 48.8855 46.5111C50.6692 46.5111 52.3494 45.9969 53.7914 45.0974C52.0746 43.5069 51 41.233 51 38.7081C51 34.9446 53.3874 31.7388 56.7303 30.5224C56.37 29.9917 55.9624 29.4995 55.5141 29.0525C53.7274 27.3691 51.335 26.3216 48.6985 26.2714ZM59.8608 31.271C59.5015 31.279 59.1479 31.3176 58.8026 31.3848C59.569 32.9255 60 34.6624 60 36.5C60 39.715 58.6807 42.6219 56.554 44.7087C57.5694 45.3597 58.7518 45.7305 60 45.7305C63.6457 45.7305 66.7305 42.5669 66.7305 38.5C66.7305 35.6908 65.2586 33.3125 63.1467 32.1103C62.1606 31.5953 61.0446 31.2949 59.8608 31.271ZM58.5111 36.3903C58.5111 34.732 58.1344 33.1743 57.4689 31.8014C55.0329 32.8666 53.2695 35.4251 53.2695 38.5C53.2695 40.6229 54.1101 42.4997 55.4322 43.8089C57.3203 41.9692 58.5111 39.3389 58.5111 36.3903Z" fill="white"/>
</svg>
